<svg width="416" height="142" viewBox="0 0 416 142" fill="none" xmlns="http://www.w3.org/2000/svg">
<path d="M86.9489 57.2063C87.1546 57.313 87.3246 57.4777 87.4381 57.68C87.5516 57.8823 87.6035 58.1135 87.5875 58.345C87.5044 59.5218 87.3508 60.6925 87.1277 61.8508C86.1314 66.6873 85.4034 70.9096 84.9435 74.5178C84.7903 76.1299 84.4837 78.1643 84.0239 80.621C83.5641 83.5382 83.4874 85.2527 83.794 85.7389C84.1005 86.2251 85.0713 86.1356 86.8978 85.4446C87.5875 85.2143 88.5455 84.9457 89.7717 84.6386C91.5343 84.1012 92.8754 83.6747 93.7951 83.3591L96.7839 82.553L98.2783 82.0924L99.7728 81.6318C100.769 81.3247 101.919 81.0176 103.221 80.7105L106.9 79.7893C109.046 79.1751 110.119 79.4054 110.119 80.4802C110.119 81.0944 108.416 82.0156 105.01 83.2439C101.024 84.6258 96.8861 86.2379 92.5944 88.0804C90.9595 88.7287 88.9031 89.5134 86.4252 90.4347C84.9641 91.0233 83.4438 91.4523 81.8908 91.7142C80.3581 91.8677 79.3618 91.4839 78.902 90.5626C78.4422 89.6414 78.4422 87.9354 78.902 85.4446C79.0553 84.5234 79.2469 83.1416 79.4768 81.2991C79.86 78.6122 80.3581 75.4262 80.9712 71.7413C81.3544 69.5917 81.5843 67.9796 81.6609 66.9048C82.274 61.6077 83.0021 58.4985 83.8451 57.5773C84.0213 57.3444 84.2426 57.1494 84.4957 57.0041C84.7488 56.8587 85.0286 56.766 85.3183 56.7313C85.608 56.6967 85.9017 56.7209 86.1818 56.8025C86.462 56.8841 86.7229 57.0214 86.9489 57.2063ZM120.158 50.5913C120.489 51.0614 120.717 51.5962 120.827 52.1607C120.937 52.7251 120.927 53.3065 120.797 53.8668C120.644 55.4789 120.507 58.5497 120.388 63.0791C120.273 67.6085 120.26 70.0651 120.388 70.449C120.411 70.5514 120.455 70.6478 120.518 70.7315C120.581 70.8152 120.661 70.8843 120.753 70.9341C120.846 70.9839 120.947 71.0132 121.052 71.02C121.156 71.0268 121.261 71.011 121.359 70.9736C122.492 70.5494 123.586 70.0271 124.629 69.4126C127.564 67.8802 130.645 66.6458 133.825 65.7277L136.814 64.8064C138.653 64.269 140.646 63.77 142.907 63.3094L144.286 62.964L145.665 62.6185L148.654 62.0427C151.413 61.5053 153.278 61.0831 154.287 60.7632C157.552 59.9177 160.873 59.3063 164.224 58.9336C164.538 58.8634 164.863 58.8579 165.179 58.9172C165.496 58.9766 165.796 59.0997 166.064 59.279C167.137 60.5841 164.497 61.9276 158.145 63.3094C152.465 64.5377 146.504 66.0945 140.263 67.9796C135.675 69.2394 131.198 70.8741 126.877 72.8672C125.339 73.6354 123.731 74.2525 122.074 74.7097C121.231 74.7865 120.797 75.0808 120.58 75.5798C120.363 76.9675 120.286 78.3734 120.35 79.7765C120.273 86.7625 119.66 90.2555 118.51 90.2555C117.131 90.2555 116.403 86.1484 116.326 77.934C116.326 74.1723 116.25 71.1399 116.096 68.8368C116.02 66.9944 116.02 63.9236 116.096 59.6245C116.091 57.4872 116.207 55.3513 116.441 53.227C116.628 52.3251 117.114 51.5131 117.821 50.9239C118.753 50.1435 119.52 50.0155 120.107 50.5913H120.158Z" fill="#6B6B6B"/>
<path d="M180.395 57.2052C180.582 57.3178 180.735 57.4802 180.837 57.6743C180.938 57.8685 180.984 58.0869 180.969 58.3056C180.886 59.4824 180.733 60.6531 180.509 61.8114C179.513 66.6479 178.785 70.8702 178.325 74.4784C178.172 76.0905 177.865 78.1249 177.406 80.5816C176.946 83.4988 176.869 85.2133 177.176 85.6995C177.482 86.1857 178.517 86.0962 180.28 85.4052C180.969 85.1749 181.927 84.9062 183.153 84.5992C184.916 84.0618 186.257 83.6353 187.177 83.3197L190.166 82.5136L191.66 82.053L193.155 81.5923C194.151 81.2853 195.3 80.9782 196.603 80.6711L200.282 79.7499C202.428 79.1357 203.501 79.366 203.501 80.4408C203.501 81.055 201.776 81.9762 198.328 83.2045C194.325 84.6034 190.196 86.2241 185.938 88.0666C184.405 88.7575 182.396 89.5465 179.909 90.4336C178.444 91.0231 176.919 91.452 175.362 91.7131C173.829 91.8667 172.833 91.4828 172.373 90.5616C171.913 89.6404 171.913 87.9344 172.373 85.4436C172.526 84.5224 172.718 83.1405 172.948 81.2981C173.331 78.6111 173.829 75.4252 174.442 71.7403C174.826 69.5907 175.055 67.9785 175.132 66.9038C175.745 61.6067 176.473 58.4975 177.316 57.5763C177.492 57.3471 177.712 57.1554 177.963 57.0124C178.214 56.8693 178.491 56.7779 178.778 56.7433C179.064 56.7088 179.355 56.7318 179.632 56.8111C179.91 56.8905 180.169 57.0244 180.395 57.2052ZM213.604 50.5902C213.932 51.0617 214.157 51.5969 214.265 52.1613C214.373 52.7256 214.361 53.3063 214.23 53.8657C214.076 55.4779 213.944 58.5487 213.834 63.0781C213.719 67.6075 213.693 70.0641 213.77 70.448C213.794 70.5508 213.84 70.6474 213.904 70.7311C213.968 70.8149 214.05 70.8839 214.143 70.9335C214.236 70.9832 214.339 71.0124 214.444 71.0191C214.549 71.0258 214.655 71.01 214.753 70.9726C215.926 70.5542 217.059 70.0318 218.138 69.4116C221.073 67.8792 224.154 66.6447 227.335 65.7266L230.323 64.8054C232.163 64.268 234.194 63.769 236.416 63.3084L237.796 62.9629L239.175 62.6175L242.164 62.0417C244.923 61.5043 246.8 61.0778 247.797 60.7622C251.045 59.9165 254.348 59.3008 257.683 58.9197C257.997 58.8496 258.322 58.844 258.638 58.9034C258.954 58.9628 259.255 59.0859 259.522 59.2652C260.595 60.5703 257.951 61.9138 251.59 63.2956C245.919 64.5239 239.958 66.0806 233.708 67.9658C229.116 69.2239 224.634 70.8586 220.31 72.8534C218.764 73.6232 217.147 74.2402 215.481 74.6959C214.638 74.7727 214.14 75.0669 213.987 75.5659C213.771 76.9536 213.694 78.3596 213.757 79.7627C213.68 86.7487 213.067 90.2417 211.918 90.2417C210.538 90.2417 209.81 86.1345 209.734 77.9202C209.734 74.1585 209.657 71.1261 209.504 68.823C209.427 66.9805 209.427 63.9098 209.504 59.6107C209.499 57.4734 209.614 55.3375 209.849 53.2132C210.035 52.3112 210.521 51.4993 211.228 50.9101C212.199 50.1424 212.991 50.0145 213.565 50.5902H213.604Z" fill="#6B6B6B"/>
<path d="M285.566 26.6892C286.12 26.6826 286.663 26.8431 287.124 27.1498C287.324 27.3337 287.482 27.5574 287.59 27.8064C287.698 28.0554 287.752 28.3242 287.75 28.5956C287.75 29.2482 287.75 31.4105 287.75 35.0954C287.75 38.7804 287.648 41.0835 287.75 41.7744C287.72 42.3728 287.847 42.9686 288.121 43.5017C288.345 43.8152 288.484 44.1817 288.524 44.5652C288.564 44.9488 288.505 45.3362 288.35 45.6896C287.898 47.8497 287.646 50.0469 287.597 52.2534C287.415 54.4376 287.415 56.6331 287.597 58.8172C287.768 59.4583 287.684 60.1409 287.362 60.721C287.04 61.301 286.506 61.7333 285.873 61.9264C283.326 62.9376 280.898 64.2248 278.63 65.7649C277.692 66.4537 276.691 67.0534 275.642 67.5562C275.104 67.6512 274.55 67.561 274.07 67.3003C273.439 67.0985 272.891 66.6938 272.512 66.1487C272.446 66.0623 272.398 65.9633 272.371 65.8577C272.344 65.7522 272.339 65.6423 272.356 65.5347C272.373 65.427 272.411 65.3239 272.469 65.2316C272.526 65.1392 272.602 65.0594 272.691 64.9972C273.41 64.314 274.346 63.9062 275.335 63.8456C276.025 63.8456 277.749 63.0396 280.508 61.4274C281.148 60.9603 281.843 60.5736 282.577 60.2759C283.037 60.2759 283.318 59.892 283.433 59.1243C283.586 57.5555 283.646 55.9789 283.612 54.403C283.754 52.6576 283.694 50.9014 283.433 49.1699C283.241 48.6709 282.692 48.5301 281.772 48.7604C279.988 49.4765 278.277 50.3635 276.663 51.409C274.364 52.7908 273.138 53.7121 272.985 54.1727C272.908 54.403 272.41 54.7484 271.49 55.2091C270.787 55.464 270.21 55.9823 269.881 56.6549C269.64 57.6556 269.64 58.6994 269.881 59.7001C270.188 62.6941 270.341 64.6005 270.341 65.4066C270.38 66.0862 270.176 66.7575 269.766 67.3003C269.306 67.8377 268.846 68.0296 268.387 67.876C268.128 67.7705 267.893 67.6143 267.696 67.4165C267.498 67.2188 267.342 66.9835 267.237 66.7245C266.426 64.3074 265.962 61.7873 265.858 59.2395C265.494 56.5298 265.417 53.7894 265.628 51.0635C265.858 49.4514 266.066 46.5554 266.254 42.3758C266.441 38.1961 266.492 35.5006 266.407 34.2894C266.106 32.9147 266.33 31.4773 267.033 30.259C267.345 29.8124 267.799 29.4848 268.321 29.3292C268.842 29.1735 269.401 29.1991 269.907 29.4017C271.184 29.7472 271.541 30.6812 271.005 32.1014C270.699 34.0461 270.507 36.0071 270.43 37.9743C270.2 41.3863 270.085 44.4571 270.085 47.1866C269.964 48.2358 270.082 49.299 270.43 50.2958C270.66 50.5261 271.235 50.2574 272.155 49.4897C272.931 48.9463 273.737 48.4465 274.569 47.9927C275.569 47.4484 276.53 46.8326 277.442 46.1503C278.839 45.1892 280.396 44.4871 282.041 44.0775C282.413 43.9952 282.765 43.8385 283.075 43.6169C283.247 43.385 283.329 43.0985 283.305 42.8108C283.305 40.5845 283.437 37.535 283.701 33.6624C283.757 31.5552 283.97 29.4552 284.34 27.3801C284.454 27.1573 284.631 26.9731 284.849 26.8503C285.067 26.7275 285.317 26.6714 285.566 26.6892ZM308.672 75.6937C309.323 75.9624 309.643 76.3207 309.643 76.7813C309.643 77.4722 308.787 78.1504 307.088 78.8029C305.389 79.4555 301.736 80.5046 296.231 81.9633C291.122 83.2683 287.98 83.9806 286.805 84.1C286.367 84.2095 285.905 84.1725 285.49 83.9947C285.075 83.8168 284.729 83.5078 284.506 83.1148C284.046 81.9633 284.506 81.042 286.051 80.3511C289.162 79.2305 292.375 78.4205 295.644 77.9329C298.249 77.4722 299.591 77.2419 299.667 77.2419C301.37 76.8581 302.711 76.5894 303.691 76.4358C304.902 76.3521 306.099 76.12 307.254 75.7449C307.484 75.4378 307.97 75.425 308.621 75.6937H308.672ZM306.194 87.9513C306.566 88.1336 306.862 88.4412 307.03 88.8202C307.198 89.1992 307.228 89.6254 307.114 90.0241C306.538 91.6084 305.846 93.1479 305.045 94.6302C303.818 97.0869 302.937 98.7374 302.401 99.5819C301.676 100.608 301.027 101.686 300.459 102.806C299.757 104.086 298.965 105.365 298.032 106.721C297.279 107.796 296.04 109.6 294.366 112.134C291.378 116.663 289.372 118.621 288.389 118.007C288.069 117.853 287.916 117.431 287.916 116.727C288.103 115.54 288.616 114.428 289.398 113.516C290.443 112.116 291.403 110.655 292.272 109.14C293.804 106.76 294.647 105.416 294.826 105.109C295.678 103.727 296.9 101.424 298.492 98.2C299.433 96.4975 300.236 94.7218 300.893 92.8901C300.893 91.9689 299.82 91.9305 297.687 92.775C297.008 93.0741 296.351 93.4204 295.72 93.8114C293.575 95.27 292.118 95.9993 291.365 95.9993C290.781 96.1598 290.234 96.4337 289.755 96.8054C289.024 97.3283 288.23 97.7581 287.392 98.0849C286.959 98.1851 286.504 98.1213 286.115 97.9057C285.425 97.4451 285.247 96.6262 285.592 95.4875C285.717 94.9688 285.966 94.4883 286.318 94.0871C286.669 93.686 287.112 93.3763 287.61 93.1844C289.076 92.6432 290.498 91.9887 291.863 91.2268C293.903 90.0491 296.04 89.0475 298.249 88.2328C299.448 87.8568 300.687 87.6248 301.941 87.5418C303.354 87.3472 304.793 87.4874 306.143 87.9513H306.194ZM314.471 104.585C316.54 105.798 318.716 106.817 320.972 107.63C322.808 108.483 324.737 109.119 326.72 109.524C329.427 110.568 332.075 111.76 334.652 113.093C337.411 114.398 338.752 115.473 338.675 116.318C338.675 117.316 336.759 117.316 332.928 116.318C331.13 115.874 329.383 115.243 327.716 114.437L325.877 113.631C325.8 113.631 325.111 113.362 323.808 112.825C322.505 112.287 320.321 111.366 317.255 110.061C315.227 109.353 313.265 108.466 311.393 107.412C310.207 106.582 308.979 105.813 307.714 105.109C306.712 104.617 305.755 104.039 304.853 103.382C304.65 102.988 304.586 102.537 304.674 102.102C304.667 101.668 304.807 101.245 305.07 100.9C305.862 99.9444 308.979 101.156 314.42 104.534L314.471 104.585ZM316.719 24.7827C317.194 24.8476 317.624 25.0955 317.92 25.4737C318.303 26.011 318.226 29.2738 317.69 35.2618C317.536 36.7204 317.345 40.367 317.115 46.2014C316.732 56.335 316.306 62.3614 315.838 64.2807C315.681 64.9359 315.318 65.5234 314.803 65.9568C314.722 66.0452 314.623 66.1157 314.513 66.164C314.403 66.2123 314.284 66.2372 314.164 66.2372C314.044 66.2372 313.926 66.2123 313.816 66.164C313.706 66.1157 313.607 66.0452 313.526 65.9568C312.989 65.4194 312.683 61.9648 312.606 55.5929C312.482 50.4041 312.674 45.2125 313.181 40.0471C313.444 37.6382 313.559 35.2154 313.526 32.7924C313.468 31.017 313.605 29.2407 313.934 27.4953C314.123 26.5495 314.627 25.6964 315.365 25.077C315.744 24.8097 316.206 24.6872 316.668 24.7316L316.719 24.7827Z" fill="#6B6B6B"/>
</svg>
